<svg width="521" height="461" viewBox="0 0 521 461" fill="none" xmlns="http://www.w3.org/2000/svg">
<g clip-path="url(#clip0_1_4)">
<path d="M129.8 166L71.6 220C71 220.5 70.1 220.5 69.5 220L11 166C10.7 165.7 10.4 165.6 10 165.6H1.5C0.7 165.6 0 166.3 0 167.1V327.2C0 328 0.7 328.7 1.5 328.7H13.5C14.3 328.7 15 328 15 327.2V192.4C15 191.1 16.6 190.4 17.5 191.3L69.4 239.4C70 239.9 70.9 239.9 71.5 239.4L123.1 191.3C124.1 190.4 125.7 191.1 125.7 192.4V327.2C125.7 328 126.4 328.7 127.2 328.7H139.2C140 328.7 140.7 328 140.7 327.2V167.1C140.7 166.3 140 165.6 139.2 165.6H130.7C130.4 165.6 130 165.7 129.8 166Z" fill="#805D45"/>
<path d="M290 460.2C208.2 460.2 152.4 415 143 407.1C82.4 356.8 67.5 291.7 63.9 272.1C63.8 271.5 64.3 270.9 64.9 270.9H80C80.5 270.9 80.9 271.2 81 271.7C84.6 289.7 98.8 348.3 153.8 394C163.3 401.9 217 443.1 290 443.1C407.5 443.1 503.1 347.5 503.1 230C503.1 112.5 407.5 17 290 17C264.8 17 240.4 21.3 217.5 29.6C208.8 32.8 183 42.7 156.8 63.8C107.9 103.1 89.5 155.3 83 178.5C82.9 178.9 82.5 179.2 82 179.2L66.8 179.1C66.1 179.1 65.7 178.5 65.8 177.9C70.4 158 87.6 97.4 146.1 50.5C156.3 42.3 210.7 0 290 0C351.5 0 409.2 23.9 452.7 67.4C496.2 110.9 520.1 168.6 520.1 230.1C520.1 291.6 496.2 349.3 452.7 392.8C409.2 436.2 351.4 460.2 290 460.2Z" fill="#364240"/>
</g>
<defs>
<clipPath id="clip0_1_4">
<rect width="520.1" height="460.2" fill="white"/>
</clipPath>
</defs>
</svg>
