<svg width="458" height="461" viewBox="0 0 458 461" fill="none" xmlns="http://www.w3.org/2000/svg">
<path d="M227 460.2C145.2 460.2 89.4 415 80 407.1C19.4 356.8 4.50001 291.7 0.900013 272.1C0.800013 271.5 1.30001 270.9 1.90001 270.9H17C17.5 270.9 17.9 271.2 18 271.7C21.6 289.7 35.8 348.3 90.8 394C100.3 401.9 154 443.1 227 443.1C344.5 443.1 440.1 347.5 440.1 230C440.1 112.5 344.5 17 227 17C201.8 17 177.4 21.3 154.5 29.6C145.8 32.8 120 42.7 93.8 63.8C44.9 103.1 26.5 155.3 20 178.5C19.9 178.9 19.5 179.2 19 179.2L3.80001 179.1C3.10001 179.1 2.70001 178.5 2.80001 177.9C7.40001 158 24.6 97.4 83.1 50.5C93.3 42.3 147.7 0 227 0C288.5 0 346.2 23.9 389.7 67.4C433.2 110.9 457.1 168.6 457.1 230.1C457.1 291.6 433.2 349.3 389.7 392.8C346.2 436.2 288.4 460.2 227 460.2Z" fill="#364240"/>
</svg>
